 

<svg id="visual" viewBox="0 0 900 600" width="900" height="600" xmlns="http://www.w3.org/2000/svg" xmlns:xlink="http://www.w3.org/1999/xlink" version="1.1">
    <rect x="0" y="0" width="900" height="600" fill="white"></rect>
    <path d="M0 320L21.5 318.3C43 316.7 86 313.3 128.8 315.3C171.7 317.3 214.3 324.7 257.2 329.2C300 333.7 343 335.3 385.8 334.8C428.7 334.3 471.3 331.7 514.2 334.8C557 338 600 347 642.8 349.3C685.7 351.7 728.3 347.3 771.2 340.7C814 334 857 325 878.5 320.5L900 316L900 601L878.5 601C857 601 814 601 771.2 601C728.3 601 685.7 601 642.8 601C600 601 557 601 514.2 601C471.3 601 428.7 601 385.8 601C343 601 300 601 257.2 601C214.3 601 171.7 601 128.8 601C86 601 43 601 21.5 601L0 601Z" fill="#fa7268"></path>
    <path d="M0 371L21.5 374.5C43 378 86 385 128.8 390C171.7 395 214.3 398 257.2 396.2C300 394.3 343 387.7 385.8 377.8C428.7 368 471.3 355 514.2 355.8C557 356.7 600 371.3 642.8 372.7C685.7 374 728.3 362 771.2 363.3C814 364.7 857 379.3 878.5 386.7L900 394L900 601L878.5 601C857 601 814 601 771.2 601C728.3 601 685.7 601 642.8 601C600 601 557 601 514.2 601C471.3 601 428.7 601 385.8 601C343 601 300 601 257.2 601C214.3 601 171.7 601 128.8 601C86 601 43 601 21.5 601L0 601Z" fill="#f66b68"></path>
    <path d="M0 407L21.5 409.8C43 412.7 86 418.3 128.8 420.8C171.7 423.3 214.3 422.7 257.2 421.7C300 420.7 343 419.3 385.8 411.3C428.7 403.3 471.3 388.7 514.2 380.7C557 372.7 600 371.3 642.8 378.2C685.7 385 728.3 400 771.2 407.8C814 415.7 857 416.3 878.5 416.7L900 417L900 601L878.5 601C857 601 814 601 771.2 601C728.3 601 685.7 601 642.8 601C600 601 557 601 514.2 601C471.3 601 428.7 601 385.8 601C343 601 300 601 257.2 601C214.3 601 171.7 601 128.8 601C86 601 43 601 21.5 601L0 601Z" fill="#f26467"></path>
    <path d="M0 370L21.5 372C43 374 86 378 128.8 385.7C171.7 393.3 214.3 404.7 257.2 408.3C300 412 343 408 385.8 408.3C428.7 408.7 471.3 413.3 514.2 414C557 414.7 600 411.3 642.8 406.2C685.7 401 728.3 394 771.2 398.8C814 403.7 857 420.3 878.5 428.7L900 437L900 601L878.5 601C857 601 814 601 771.2 601C728.3 601 685.7 601 642.8 601C600 601 557 601 514.2 601C471.3 601 428.7 601 385.8 601C343 601 300 601 257.2 601C214.3 601 171.7 601 128.8 601C86 601 43 601 21.5 601L0 601Z" fill="#ee5d67"></path>
    <path d="M0 427L21.5 431.5C43 436 86 445 128.8 445.2C171.7 445.3 214.3 436.7 257.2 435.7C300 434.7 343 441.3 385.8 440.7C428.7 440 471.3 432 514.2 422.5C557 413 600 402 642.8 406.7C685.7 411.3 728.3 431.7 771.2 433.8C814 436 857 420 878.5 412L900 404L900 601L878.5 601C857 601 814 601 771.2 601C728.3 601 685.7 601 642.8 601C600 601 557 601 514.2 601C471.3 601 428.7 601 385.8 601C343 601 300 601 257.2 601C214.3 601 171.7 601 128.8 601C86 601 43 601 21.5 601L0 601Z" fill="#ea5667"></path>
    <path d="M0 427L21.5 429.8C43 432.7 86 438.3 128.8 446.7C171.7 455 214.3 466 257.2 460.8C300 455.7 343 434.3 385.8 435C428.7 435.7 471.3 458.3 514.2 463C557 467.7 600 454.3 642.8 448.7C685.7 443 728.3 445 771.2 444.5C814 444 857 441 878.5 439.5L900 438L900 601L878.5 601C857 601 814 601 771.2 601C728.3 601 685.7 601 642.8 601C600 601 557 601 514.2 601C471.3 601 428.7 601 385.8 601C343 601 300 601 257.2 601C214.3 601 171.7 601 128.8 601C86 601 43 601 21.5 601L0 601Z" fill="#e54f67"></path>
    <path d="M0 439L21.5 439C43 439 86 439 128.8 448.2C171.7 457.3 214.3 475.7 257.2 481.3C300 487 343 480 385.8 473.5C428.7 467 471.3 461 514.2 458.8C557 456.7 600 458.3 642.8 461C685.7 463.7 728.3 467.3 771.2 470.3C814 473.3 857 475.7 878.5 476.8L900 478L900 601L878.5 601C857 601 814 601 771.2 601C728.3 601 685.7 601 642.8 601C600 601 557 601 514.2 601C471.3 601 428.7 601 385.8 601C343 601 300 601 257.2 601C214.3 601 171.7 601 128.8 601C86 601 43 601 21.5 601L0 601Z" fill="#e14867"></path>
    <path d="M0 497L21.5 499.3C43 501.7 86 506.3 128.8 502.2C171.7 498 214.3 485 257.2 477C300 469 343 466 385.8 471.7C428.7 477.3 471.3 491.7 514.2 492.2C557 492.7 600 479.3 642.8 473.8C685.7 468.3 728.3 470.7 771.2 473.7C814 476.7 857 480.3 878.5 482.2L900 484L900 601L878.5 601C857 601 814 601 771.2 601C728.3 601 685.7 601 642.8 601C600 601 557 601 514.2 601C471.3 601 428.7 601 385.8 601C343 601 300 601 257.2 601C214.3 601 171.7 601 128.8 601C86 601 43 601 21.5 601L0 601Z" fill="#dc4167"></path>
    <path d="M0 490L21.5 489.8C43 489.7 86 489.3 128.8 495.3C171.7 501.3 214.3 513.7 257.2 516C300 518.3 343 510.7 385.8 510.3C428.7 510 471.3 517 514.2 516.8C557 516.7 600 509.3 642.8 504.3C685.7 499.3 728.3 496.7 771.2 499C814 501.3 857 508.7 878.5 512.3L900 516L900 601L878.5 601C857 601 814 601 771.2 601C728.3 601 685.7 601 642.8 601C600 601 557 601 514.2 601C471.3 601 428.7 601 385.8 601C343 601 300 601 257.2 601C214.3 601 171.7 601 128.8 601C86 601 43 601 21.5 601L0 601Z" fill="#d73a67"></path>
    <path d="M0 525L21.5 527.2C43 529.3 86 533.7 128.8 535.8C171.7 538 214.3 538 257.2 536C300 534 343 530 385.8 526.7C428.7 523.3 471.3 520.7 514.2 519.5C557 518.3 600 518.7 642.8 523.7C685.7 528.7 728.3 538.3 771.2 540.8C814 543.3 857 538.7 878.5 536.3L900 534L900 601L878.5 601C857 601 814 601 771.2 601C728.3 601 685.7 601 642.8 601C600 601 557 601 514.2 601C471.3 601 428.7 601 385.8 601C343 601 300 601 257.2 601C214.3 601 171.7 601 128.8 601C86 601 43 601 21.5 601L0 601Z" fill="#d13367"></path>
    <path d="M0 564L21.5 559C43 554 86 544 128.8 542.8C171.7 541.7 214.3 549.3 257.2 549.7C300 550 343 543 385.8 543.5C428.7 544 471.3 552 514.2 552.2C557 552.3 600 544.7 642.8 543.8C685.7 543 728.3 549 771.2 550.5C814 552 857 549 878.5 547.5L900 546L900 601L878.5 601C857 601 814 601 771.2 601C728.3 601 685.7 601 642.8 601C600 601 557 601 514.2 601C471.3 601 428.7 601 385.8 601C343 601 300 601 257.2 601C214.3 601 171.7 601 128.8 601C86 601 43 601 21.5 601L0 601Z" fill="#cc2b68"></path>
    <path d="M0 581L21.5 577.3C43 573.7 86 566.3 128.8 563.8C171.7 561.3 214.3 563.7 257.2 567.3C300 571 343 576 385.8 578.5C428.7 581 471.3 581 514.2 581.2C557 581.3 600 581.7 642.8 580.8C685.7 580 728.3 578 771.2 576.3C814 574.7 857 573.3 878.5 572.7L900 572L900 601L878.5 601C857 601 814 601 771.2 601C728.3 601 685.7 601 642.8 601C600 601 557 601 514.2 601C471.3 601 428.7 601 385.8 601C343 601 300 601 257.2 601C214.3 601 171.7 601 128.8 601C86 601 43 601 21.5 601L0 601Z" fill="#c62368"></path>
</svg>